<?xml version="1.0" encoding="utf-8"?>
<!-- Generator: Adobe Illustrator 26.0.1, SVG Export Plug-In . SVG Version: 6.00 Build 0)  -->
<svg version="1.1" id="Layer_1" xmlns="http://www.w3.org/2000/svg" xmlns:xlink="http://www.w3.org/1999/xlink" x="0px" y="0px"
	 viewBox="0 0 18 20" style="enable-background:new 0 0 18 20;" xml:space="preserve">
<style type="text/css">
	.st0{fill:#7E84A3;}
</style>
<g>
	<path class="st0" d="M15,2h-1V1c0-0.6-0.4-1-1-1s-1,0.4-1,1v1H6V1c0-0.6-0.4-1-1-1S4,0.4,4,1v1H3C1.3,2,0,3.3,0,5v12
		c0,1.7,1.3,3,3,3h12c1.7,0,3-1.3,3-3V5C18,3.3,16.7,2,15,2z M3,4h1v1c0,0.6,0.4,1,1,1s1-0.4,1-1V4h6v1c0,0.6,0.4,1,1,1s1-0.4,1-1V4
		h1c0.6,0,1,0.4,1,1v3H2V5C2,4.4,2.4,4,3,4z M15,18H3c-0.6,0-1-0.4-1-1v-7h14v7C16,17.6,15.6,18,15,18z"/>
	<path class="st0" d="M11,13H7c-0.6,0-1,0.4-1,1s0.4,1,1,1h4c0.6,0,1-0.4,1-1S11.6,13,11,13z"/>
</g>
</svg>
