<?xml version="1.0" encoding="utf-8"?>
<!-- Generator: Adobe Illustrator 26.0.1, SVG Export Plug-In . SVG Version: 6.00 Build 0)  -->
<svg version="1.1" id="Layer_1" xmlns="http://www.w3.org/2000/svg" xmlns:xlink="http://www.w3.org/1999/xlink" x="0px" y="0px"
	 viewBox="0 0 14.1 14.1" style="enable-background:new 0 0 14.1 14.1;" xml:space="preserve">
<style type="text/css">
	.st0{fill:#757575;}
</style>
<path class="st0" d="M8.1,7.1l5.5-5.5c0.3-0.3,0.3-0.8,0-1.1s-0.8-0.3-1.1,0L7.1,6L1.6,0.5c-0.3-0.3-0.8-0.3-1.1,0s-0.3,0.8,0,1.1
	L6,7.1l-5.5,5.5c-0.3,0.3-0.3,0.8,0,1.1c0.1,0.1,0.3,0.2,0.5,0.2s0.4-0.1,0.5-0.2l5.5-5.5l5.5,5.5c0.1,0.1,0.3,0.2,0.5,0.2
	s0.4-0.1,0.5-0.2c0.3-0.3,0.3-0.8,0-1.1L8.1,7.1z"/>
</svg>
