<?xml version="1.0" encoding="utf-8"?>
<!-- Generator: Adobe Illustrator 26.0.1, SVG Export Plug-In . SVG Version: 6.00 Build 0)  -->
<svg version="1.1" id="Layer_1" xmlns="http://www.w3.org/2000/svg" xmlns:xlink="http://www.w3.org/1999/xlink" x="0px" y="0px"
	 viewBox="0 0 20.8 16" style="enable-background:new 0 0 20.8 16;" xml:space="preserve">
<style type="text/css">
	.st0{fill:#7E84A3;}
</style>
<path class="st0" d="M20.4,2.8C20.4,2.8,20.4,2.8,20.4,2.8C20.3,1.2,19,0,17.4,0h-14c-1.6,0-2.9,1.2-3,2.8c0,0,0,0,0,0
	c0,0.1,0,0.1,0,0.2v10c0,1.7,1.3,3,3,3h14c1.7,0,3-1.3,3-3V3C20.4,2.9,20.4,2.9,20.4,2.8z M3.4,2h14c0.4,0,0.7,0.2,0.9,0.5l-7.9,5.3
	L2.5,2.5C2.7,2.2,3,2,3.4,2z M17.4,14h-14c-0.6,0-1-0.4-1-1V4.9l7.4,5C10,9.9,10.2,10,10.4,10s0.4-0.1,0.6-0.2l7.4-5V13
	C18.4,13.6,17.9,14,17.4,14z"/>
</svg>
