<?xml version="1.0" encoding="utf-8"?>
<!-- Generator: Adobe Illustrator 26.0.1, SVG Export Plug-In . SVG Version: 6.00 Build 0)  -->
<svg version="1.1" id="Layer_1" xmlns="http://www.w3.org/2000/svg" xmlns:xlink="http://www.w3.org/1999/xlink" x="0px" y="0px"
	 viewBox="0 0 16 20" style="enable-background:new 0 0 16 20;" xml:space="preserve">
<style type="text/css">
	.st0{fill:#7E84A3;}
</style>
<g>
	<path class="st0" d="M15.9,5.6c-0.1-0.1-0.1-0.2-0.2-0.3l-5-5c-0.1-0.1-0.2-0.2-0.3-0.2C10.3,0,10.1,0,10,0H3C1.3,0,0,1.3,0,3v14
		c0,1.7,1.3,3,3,3h10c1.7,0,3-1.3,3-3V6C16,5.9,16,5.7,15.9,5.6z M11,3.4L12.6,5H11V3.4z M13,18H3c-0.6,0-1-0.4-1-1V3
		c0-0.6,0.4-1,1-1h6v3c0,1.1,0.9,2,2,2h3v10C14,17.6,13.6,18,13,18z"/>
	<path class="st0" d="M5,6h1c0.6,0,1-0.4,1-1S6.6,4,6,4H5C4.4,4,4,4.4,4,5S4.4,6,5,6z"/>
	<path class="st0" d="M11,10H5c-0.6,0-1,0.4-1,1c0,0.6,0.4,1,1,1h6c0.6,0,1-0.4,1-1C12,10.4,11.6,10,11,10z"/>
	<path class="st0" d="M11,14H9c-0.6,0-1,0.4-1,1s0.4,1,1,1h2c0.6,0,1-0.4,1-1S11.6,14,11,14z"/>
</g>
</svg>
