<?xml version="1.0" encoding="utf-8"?>
<!-- Generator: Adobe Illustrator 26.0.1, SVG Export Plug-In . SVG Version: 6.00 Build 0)  -->
<svg version="1.1" id="Layer_1" xmlns="http://www.w3.org/2000/svg" xmlns:xlink="http://www.w3.org/1999/xlink" x="0px" y="0px"
	 viewBox="0 0 20 20" style="enable-background:new 0 0 20 20;" xml:space="preserve">
<style type="text/css">
	.st0{fill:#7E84A3;}
</style>
<g>
	<path class="st0" d="M10,0C4.5,0,0,4.5,0,10c0,5.5,4.5,10,10,10c5.5,0,10-4.5,10-10C20,4.5,15.5,0,10,0z M10,18c-4.4,0-8-3.6-8-8
		s3.6-8,8-8s8,3.6,8,8S14.4,18,10,18z"/>
	<path class="st0" d="M10,14c-0.6,0-1,0.5-1,1s0.4,1,1,1s1-0.4,1-1v0C11,14.4,10.6,14,10,14z"/>
	<path class="st0" d="M8.8,4.2C8.2,4.4,7.6,4.9,7.2,5.4C6.9,5.8,7,6.5,7.4,6.8C7.8,7.1,8.5,7,8.8,6.6C9,6.4,9.2,6.2,9.5,6.1
		c0.4-0.2,0.8-0.1,1.2,0c0.4,0.2,0.7,0.5,0.8,0.9c0.2,0.4,0.1,0.8,0,1.2c-0.2,0.4-0.5,0.7-0.9,0.8c-1,0.4-1.7,1.4-1.7,2.5
		c0,0.5,0.5,0.9,1,0.9c0,0,0,0,0.1,0c0.6,0,1-0.5,0.9-1.1c0-0.2,0.1-0.4,0.4-0.5c1.9-0.7,2.8-2.8,2.1-4.6C12.7,4.4,10.6,3.5,8.8,4.2
		z"/>
</g>
</svg>
