<?xml version="1.0" encoding="utf-8"?>
<!-- Generator: Adobe Illustrator 26.0.1, SVG Export Plug-In . SVG Version: 6.00 Build 0)  -->
<svg version="1.1" id="Layer_1" xmlns="http://www.w3.org/2000/svg" xmlns:xlink="http://www.w3.org/1999/xlink" x="0px" y="0px"
	 viewBox="0 0 20 20" style="enable-background:new 0 0 20 20;" xml:space="preserve">
<style type="text/css">
	.st0{fill:#7E84A3;}
</style>
<path class="st0" d="M18,9h-4V2c0-1.1-0.9-2-2-2H8C6.9,0,6,0.9,6,2v2.5H2c-1.1,0-2,0.9-2,2V19c0,0.6,0.4,1,1,1h12h6c0.6,0,1-0.4,1-1
	v-8C20,9.9,19.1,9,18,9z M6,18H2V6.5h4V18z M12,10.9C12,11,12,11,12,10.9V18H8V2h4V10.9z M18,18h-4v-7h4V18z"/>
</svg>
