<?xml version="1.0" encoding="utf-8"?>
<!-- Generator: Adobe Illustrator 26.0.1, SVG Export Plug-In . SVG Version: 6.00 Build 0)  -->
<svg version="1.1" id="Layer_1" xmlns="http://www.w3.org/2000/svg" xmlns:xlink="http://www.w3.org/1999/xlink" x="0px" y="0px"
	 viewBox="0 0 20.3 18.3" style="enable-background:new 0 0 20.3 18.3;" xml:space="preserve">
<style type="text/css">
	.st0{fill:#7E84A3;}
</style>
<g>
	<path class="st0" d="M20.2,8.1c-0.2-2.2-1.3-4.2-3.1-5.6c-3.7-3-9.1-3.3-13-0.5L4,2C0.3,4.5-0.8,9.5,1.5,13.3l-1.1,3.5
		c-0.1,0.3,0,0.7,0.2,1C0.7,17.9,1,18,1.3,18c0.1,0,0.1,0,0.2,0l4.4-0.9c4.3,1.9,9.3,0.8,12.5-2.7l0.1-0.2
		C19.8,12.5,20.5,10.3,20.2,8.1z M16.9,13l-0.1,0.1c-2.6,2.9-6.9,3.8-10.4,2.1C6.3,15.1,6.1,15,6,15c-0.1,0-0.1,0-0.2,0l-3,0.6
		l0.7-2.2c0.1-0.3,0.1-0.6-0.1-0.9c-2-2.9-1.2-6.9,1.7-8.9l0.1-0.1C8.5,1.3,12.8,1.5,15.9,4c1.3,1.1,2.2,2.6,2.4,4.3
		S17.9,11.6,16.9,13z"/>
	<path class="st0" d="M10.3,8c-0.6,0-1,0.5-1,1s0.4,1,1,1s1-0.4,1-1v0C11.3,8.5,10.8,8,10.3,8z"/>
	<path class="st0" d="M6.3,8c-0.6,0-1,0.5-1,1s0.4,1,1,1s1-0.4,1-1v0C7.3,8.5,6.8,8,6.3,8z"/>
	<path class="st0" d="M14.3,8c-0.6,0-1,0.5-1,1s0.4,1,1,1s1-0.4,1-1v0C15.3,8.5,14.8,8,14.3,8z"/>
</g>
</svg>
