<svg xmlns="http://www.w3.org/2000/svg" width="21.007" height="24.653" viewBox="0 0 21.007 24.653">
  <path id="notifications" d="M10.5,24.826A2.367,2.367,0,0,1,8.767,24.1,2.334,2.334,0,0,1,8.044,22.4h4.919A2.334,2.334,0,0,1,12.24,24.1a2.367,2.367,0,0,1-1.736.723Zm8.016-7.407,2.488,2.488v1.215H0V19.907l2.488-2.488V10.648A7.785,7.785,0,0,1,4.224,5.642a7.821,7.821,0,0,1,4.4-2.806V2.025A1.753,1.753,0,0,1,9.173.694,1.865,1.865,0,0,1,10.5.173a1.767,1.767,0,0,1,1.3.521,1.8,1.8,0,0,1,.521,1.331v.81a7.841,7.841,0,0,1,4.456,2.807,7.785,7.785,0,0,1,1.736,5.006v6.771Zm-2.488,1.273V10.648a5.531,5.531,0,0,0-5.555-5.555,5.531,5.531,0,0,0-5.555,5.555v8.044H16.032Z" transform="translate(0 -0.173)"/>
</svg>
