<svg xmlns="http://www.w3.org/2000/svg" width="20.339" height="24.841" viewBox="0 0 20.339 24.841">
  <path id="paste" d="M18.061,2.278a2.2,2.2,0,0,1,1.615.662A2.14,2.14,0,0,1,20.339,4.5V22.616a2.14,2.14,0,0,1-.662,1.563,2.193,2.193,0,0,1-1.616.662H2.278a2.2,2.2,0,0,1-1.615-.662A2.14,2.14,0,0,1,0,22.617V4.5A2.14,2.14,0,0,1,.662,2.939a2.19,2.19,0,0,1,1.616-.661H6.992A3.478,3.478,0,0,1,8.237.636a3.254,3.254,0,0,1,3.865,0,3.47,3.47,0,0,1,1.245,1.642Zm-7.892,0A1.087,1.087,0,0,0,9.057,3.39a1.112,1.112,0,1,0,2.224,0,1.087,1.087,0,0,0-1.112-1.112Zm7.892,20.339V4.5H15.836v3.39H4.5V4.5H2.278V22.616H18.062Z"/>
</svg>
