<?xml version="1.0" encoding="utf-8"?>
<!-- Generator: Adobe Illustrator 26.0.1, SVG Export Plug-In . SVG Version: 6.00 Build 0)  -->
<svg version="1.1" id="Layer_1" xmlns="http://www.w3.org/2000/svg" xmlns:xlink="http://www.w3.org/1999/xlink" x="0px" y="0px"
	 viewBox="0 0 20 20.1" style="enable-background:new 0 0 20 20.1;" xml:space="preserve">
<style type="text/css">
	.st0{fill:#7E84A3;}
</style>
<g>
	<path class="st0" d="M7,10.1c2.8,0,5-2.2,5-5s-2.2-5-5-5s-5,2.2-5,5S4.2,10.1,7,10.1z M7,2.1c1.7,0,3,1.3,3,3s-1.3,3-3,3
		s-3-1.3-3-3S5.3,2.1,7,2.1z"/>
	<path class="st0" d="M9,12.1H5c-2.8,0-5,2.2-5,5v2c0,0.6,0.4,1,1,1s1-0.4,1-1v-2c0-1.7,1.3-3,3-3h4c1.7,0,3,1.3,3,3v2
		c0,0.6,0.4,1,1,1s1-0.4,1-1v-2C14,14.3,11.8,12.1,9,12.1z"/>
	<path class="st0" d="M17.9,6.3c0.7-2.7-0.9-5.4-3.6-6.1C13.7,0.1,13.2,0.4,13,1c-0.1,0.5,0.2,1.1,0.7,1.2c1.6,0.4,2.6,2,2.2,3.7
		c-0.3,1.1-1.1,1.9-2.2,2.2c-0.5,0.1-0.9,0.7-0.7,1.2c0.1,0.5,0.5,0.8,1,0.8c0.1,0,0.2,0,0.2,0C16,9.5,17.4,8.1,17.9,6.3z"/>
	<path class="st0" d="M16.3,12.3c-0.5-0.1-1.1,0.2-1.2,0.7s0.2,1.1,0.7,1.2c1.3,0.3,2.2,1.5,2.3,2.9v2c0,0.6,0.4,1,1,1s1-0.4,1-1v-2
		C20,14.8,18.4,12.8,16.3,12.3z"/>
</g>
</svg>
