<svg id="Layer_1" data-name="Layer 1" xmlns="http://www.w3.org/2000/svg" viewBox="0 0 36 36"><path d="M16.76,13.08l-2.68,8.4H11L9.68,17,8.26,21.48h-3l-2.69-8.4H5.45l1.46,4.78,1.55-4.78h2.6l1.47,4.84,1.55-4.84Z"/><path d="M20.81,18.7l-.64.7v2.08H17.39v-8.4h2.78v3l2.76-3H26l-3.35,3.7,3.52,4.7H22.91Z"/><path d="M27.49,21.44a5.66,5.66,0,0,1-1.63-.63l.91-2.07a5.47,5.47,0,0,0,1.35.56,5.2,5.2,0,0,0,1.42.21,2.38,2.38,0,0,0,.84-.11.36.36,0,0,0,.25-.34c0-.18-.1-.31-.33-.4a7.56,7.56,0,0,0-1.08-.29,10.77,10.77,0,0,1-1.62-.44,2.76,2.76,0,0,1-1.13-.76A2.1,2.1,0,0,1,26,15.72a2.46,2.46,0,0,1,.45-1.44,2.9,2.9,0,0,1,1.32-1,5.47,5.47,0,0,1,2.14-.37,8,8,0,0,1,1.7.18,5.42,5.42,0,0,1,1.47.55l-.85,2.05a5.25,5.25,0,0,0-2.34-.62c-.73,0-1.09.17-1.09.53,0,.16.11.29.32.37a5.74,5.74,0,0,0,1.07.27,10.45,10.45,0,0,1,1.62.42A2.83,2.83,0,0,1,33,17.4a2.05,2.05,0,0,1,.48,1.44A2.47,2.47,0,0,1,33,20.27a3,3,0,0,1-1.33,1,5.29,5.29,0,0,1-2.14.38A9.09,9.09,0,0,1,27.49,21.44Z"/></svg>