<svg id="Layer_1" data-name="Layer 1" xmlns="http://www.w3.org/2000/svg" viewBox="0 0 36 36"><path d="M15.91,13.08l-2.69,8.4h-3L8.83,17,7.4,21.48h-3l-2.69-8.4H4.6l1.46,4.78,1.55-4.78h2.6l1.47,4.84,1.54-4.84Z"/><path d="M20.14,19.37h-.77v2.11H16.54v-8.4h4a5.07,5.07,0,0,1,2,.38,2.93,2.93,0,0,1,1.8,2.79A3,3,0,0,1,24,17.82a2.92,2.92,0,0,1-1.18,1.07l1.77,2.59h-3Zm1.12-3.85a1.26,1.26,0,0,0-.86-.26h-1v2h1a1.21,1.21,0,0,0,.86-.26.89.89,0,0,0,.29-.72A.91.91,0,0,0,21.26,15.52Z"/><path d="M33.76,13.08v8.4H30.92v-3.1H28.31v3.1H25.48v-8.4h2.83v3h2.61v-3Z"/></svg>