<?xml version="1.0" encoding="utf-8"?>
<!-- Generator: Adobe Illustrator 25.0.1, SVG Export Plug-In . SVG Version: 6.00 Build 0)  -->
<svg version="1.1" id="Layer_1" xmlns="http://www.w3.org/2000/svg" xmlns:xlink="http://www.w3.org/1999/xlink" x="0px" y="0px"
	 viewBox="0 0 157.7 39.6" style="enable-background:new 0 0 157.7 39.6;" xml:space="preserve">
<style type="text/css">
	.st0{fill:#010101;}
</style>
<g id="logo" transform="translate(-18.045 -32.45)">
	<g>
		<path d="M47.1,34l-6,18.2h-3.6L33,38.7l-4.6,13.5h-3.6l-6-18.2h3.5l4.5,13.8L31.5,34h3.1l4.6,13.9L43.8,34H47.1z"/>
		<path d="M61.7,52.2L58,46.9c-0.2,0-0.4,0-0.7,0h-4.1v5.3h-3.4V34h7.5c1.6,0,3,0.3,4.1,0.8c1.2,0.5,2.1,1.3,2.7,2.2
			c0.6,1,0.9,2.1,0.9,3.5c0,1.4-0.3,2.5-1,3.5c-0.7,1-1.6,1.7-2.9,2.2l4.2,6H61.7z M60.5,37.8c-0.8-0.6-1.9-0.9-3.4-0.9h-4v7.3h4
			c1.5,0,2.6-0.3,3.4-0.9c0.8-0.6,1.1-1.5,1.1-2.7C61.7,39.3,61.3,38.4,60.5,37.8z"/>
		<path d="M85,34v18.2h-3.4v-7.8h-9.4v7.8h-3.4V34h3.4v7.5h9.4V34H85z"/>
		<path d="M106.1,34v18.2h-3.4v-7.8h-9.4v7.8h-3.4V34h3.4v7.5h9.4V34H106.1z"/>
		<path d="M124.1,38.3v13.9H121v-1.8c-0.5,0.6-1.2,1.1-2,1.4c-0.8,0.3-1.6,0.5-2.5,0.5c-1.9,0-3.3-0.5-4.4-1.5
			c-1.1-1-1.6-2.6-1.6-4.6v-7.9h3.2v7.5c0,1.2,0.3,2.2,0.8,2.8c0.6,0.6,1.4,0.9,2.4,0.9c1.2,0,2.1-0.4,2.8-1.1s1-1.8,1-3.1v-7H124.1
			z"/>
		<path d="M139.7,39c1.1,0.6,1.9,1.4,2.5,2.5c0.6,1.1,0.9,2.3,0.9,3.7c0,1.4-0.3,2.6-0.9,3.7c-0.6,1.1-1.4,1.9-2.5,2.5
			c-1.1,0.6-2.3,0.9-3.6,0.9c-1,0-1.8-0.2-2.6-0.5s-1.5-0.8-2-1.5v1.8h-3.1V32.9h3.2V40c0.6-0.6,1.2-1.1,2-1.4s1.6-0.5,2.5-0.5
			C137.4,38.1,138.6,38.4,139.7,39z M138.6,48.4c0.8-0.8,1.2-1.8,1.2-3.1c0-1.3-0.4-2.3-1.2-3.1s-1.8-1.2-3-1.2
			c-0.8,0-1.5,0.2-2.1,0.5c-0.6,0.4-1.1,0.9-1.5,1.5s-0.5,1.4-0.5,2.3s0.2,1.6,0.5,2.3s0.9,1.2,1.5,1.5s1.3,0.5,2.1,0.5
			C136.9,49.6,137.9,49.2,138.6,48.4z"/>
	</g>
	<path id="Path_500" class="st0" d="M28.4,61.5L23.8,72h-1.1L18,61.5h1.2l4,9.1l4.1-9.1H28.4z M36,68.4h-6.6c0,0.8,0.4,1.5,0.9,2
		c0.6,0.5,1.4,0.8,2.2,0.8c0.5,0,0.9-0.1,1.3-0.3c0.4-0.2,0.8-0.4,1.1-0.8l0.6,0.7c-0.4,0.4-0.8,0.8-1.3,1c-0.5,0.2-1.1,0.3-1.7,0.3
		c-0.8,0-1.5-0.2-2.2-0.5c-0.6-0.3-1.1-0.8-1.5-1.4c-0.4-0.6-0.5-1.3-0.5-2.1c0-0.7,0.2-1.4,0.5-2.1c0.3-0.6,0.8-1.1,1.4-1.4
		c0.6-0.3,1.3-0.5,2-0.5c0.7,0,1.4,0.2,2,0.5c0.6,0.3,1.1,0.8,1.4,1.4c0.3,0.6,0.5,1.4,0.5,2.1L36,68.4z M32.2,65
		c-0.7,0-1.4,0.2-1.9,0.7c-0.5,0.5-0.8,1.2-0.9,1.9H35c0-0.7-0.4-1.4-0.9-1.9C33.6,65.2,32.9,64.9,32.2,65z M39.2,65.7
		c0.2-0.5,0.6-0.9,1.1-1.2c0.6-0.3,1.2-0.4,1.8-0.4v1l-0.3,0c-0.7,0-1.4,0.2-2,0.8c-0.5,0.6-0.8,1.4-0.7,2.1v4h-1.1v-7.9h1V65.7z
		 M46.3,72.1c-0.6,0-1.2-0.1-1.8-0.3c-0.5-0.1-1-0.4-1.4-0.7l0.5-0.8c0.4,0.3,0.8,0.5,1.2,0.6c0.5,0.2,1,0.2,1.6,0.2
		c0.6,0,1.1-0.1,1.6-0.3c0.3-0.2,0.5-0.6,0.5-1c0-0.3-0.1-0.5-0.3-0.7c-0.2-0.2-0.5-0.3-0.7-0.4c-0.4-0.1-0.8-0.2-1.2-0.2
		c-0.5-0.1-1-0.2-1.5-0.4c-0.4-0.1-0.7-0.3-1-0.6c-0.3-0.3-0.4-0.8-0.4-1.2c0-0.6,0.3-1.2,0.8-1.6c0.7-0.5,1.5-0.7,2.3-0.6
		c0.5,0,1,0.1,1.5,0.2c0.4,0.1,0.9,0.3,1.3,0.5l-0.5,0.9c-0.7-0.5-1.5-0.7-2.3-0.7c-0.5,0-1.1,0.1-1.5,0.4c-0.3,0.2-0.5,0.6-0.5,0.9
		c0,0.3,0.1,0.5,0.3,0.7c0.2,0.2,0.5,0.3,0.7,0.4c0.4,0.1,0.8,0.2,1.2,0.3c0.5,0.1,1,0.2,1.5,0.4c0.4,0.1,0.7,0.3,1,0.6
		c0.3,0.3,0.4,0.8,0.4,1.2c0,0.7-0.3,1.3-0.9,1.6C47.9,71.9,47.1,72.1,46.3,72.1z M51.5,64.1h1.1V72h-1.1V64.1z M52,62.4
		c-0.2,0-0.4-0.1-0.6-0.2c-0.1-0.1-0.2-0.3-0.2-0.5c0-0.2,0.1-0.4,0.2-0.5c0.1-0.1,0.3-0.2,0.6-0.2c0.2,0,0.4,0.1,0.6,0.2
		c0.1,0.1,0.2,0.3,0.2,0.5c0,0.2-0.1,0.4-0.2,0.6C52.4,62.3,52.2,62.4,52,62.4z M58.7,72.1c-0.7,0-1.4-0.2-2.1-0.5
		c-0.6-0.3-1.1-0.8-1.4-1.4c-0.4-0.6-0.5-1.3-0.5-2.1c0-0.7,0.2-1.4,0.5-2.1c0.3-0.6,0.8-1.1,1.4-1.4c0.6-0.3,1.3-0.5,2.1-0.5
		c0.7,0,1.4,0.2,2.1,0.5c0.6,0.3,1.1,0.8,1.4,1.4c0.4,0.6,0.5,1.3,0.5,2.1c0,0.7-0.2,1.4-0.5,2.1c-0.3,0.6-0.8,1.1-1.4,1.4
		C60.2,71.9,59.5,72.1,58.7,72.1z M58.7,71.1c0.5,0,1-0.1,1.5-0.4c0.4-0.3,0.8-0.6,1-1.1c0.3-0.5,0.4-1,0.4-1.6
		c0-0.6-0.1-1.1-0.4-1.6c-0.2-0.5-0.6-0.8-1-1.1c-0.5-0.3-1-0.4-1.5-0.4c-0.5,0-1,0.1-1.5,0.4c-0.4,0.3-0.8,0.6-1,1.1
		c-0.3,0.5-0.4,1-0.4,1.6c0,0.6,0.1,1.1,0.4,1.6c0.2,0.5,0.6,0.8,1,1.1C57.7,71,58.2,71.1,58.7,71.1z M68.9,64.1
		c0.9,0,1.7,0.3,2.4,0.9c0.6,0.7,0.9,1.6,0.9,2.5V72h-1.1v-4.5c0-0.7-0.2-1.4-0.6-1.9C70,65.2,69.4,65,68.7,65c-0.7,0-1.5,0.2-2,0.8
		c-0.5,0.6-0.8,1.3-0.7,2.1V72h-1.1v-7.9h1v1.5c0.3-0.5,0.7-0.9,1.2-1.1C67.7,64.2,68.3,64,68.9,64.1z M82.5,72.1
		c-0.8,0-1.5-0.2-2.2-0.6c-0.7-0.5-1.2-1.1-1.5-1.9c-0.4-0.9-0.6-1.9-0.5-2.8c0-1,0.2-1.9,0.5-2.8c0.3-0.7,0.8-1.4,1.5-1.9
		c0.6-0.4,1.4-0.7,2.2-0.6c0.8,0,1.5,0.2,2.2,0.6c0.7,0.5,1.2,1.1,1.5,1.9c0.4,0.9,0.6,1.9,0.5,2.8c0,1-0.2,1.9-0.5,2.8
		c-0.3,0.7-0.8,1.4-1.5,1.9C84,71.9,83.3,72.1,82.5,72.1z M82.5,71.1c0.6,0,1.1-0.2,1.6-0.5c0.5-0.4,0.9-0.9,1.1-1.5
		c0.3-0.8,0.4-1.6,0.4-2.4c0-0.8-0.1-1.6-0.4-2.4c-0.2-0.6-0.6-1.1-1.1-1.5c-0.5-0.3-1-0.5-1.6-0.5c-0.6,0-1.1,0.2-1.6,0.5
		c-0.5,0.4-0.9,0.9-1.1,1.5c-0.3,0.8-0.4,1.6-0.4,2.4c0,0.8,0.1,1.6,0.4,2.4c0.2,0.6,0.6,1.1,1.1,1.5C81.3,70.9,81.9,71.1,82.5,71.1
		z M88.9,72.1c-0.2,0-0.4-0.1-0.6-0.2c-0.2-0.2-0.2-0.4-0.2-0.6c0-0.2,0.1-0.4,0.2-0.6c0.1-0.2,0.4-0.2,0.6-0.2
		c0.2,0,0.4,0.1,0.6,0.2c0.2,0.1,0.2,0.4,0.2,0.6c0,0.2-0.1,0.4-0.2,0.6C89.3,72,89.1,72.1,88.9,72.1z M95.3,72.1
		c-0.8,0-1.5-0.2-2.2-0.6c-0.7-0.5-1.2-1.1-1.5-1.9c-0.4-0.9-0.6-1.9-0.5-2.8c0-1,0.2-1.9,0.5-2.8c0.3-0.7,0.8-1.4,1.5-1.9
		c0.6-0.4,1.4-0.7,2.2-0.6c0.8,0,1.5,0.2,2.2,0.6c0.7,0.5,1.2,1.1,1.5,1.9c0.4,0.9,0.6,1.9,0.5,2.8c0,1-0.2,1.9-0.5,2.8
		c-0.3,0.7-0.8,1.4-1.5,1.9C96.8,71.9,96,72.1,95.3,72.1z M95.3,71.1c0.6,0,1.1-0.2,1.6-0.5c0.5-0.4,0.9-0.9,1.1-1.5
		c0.3-0.8,0.4-1.6,0.4-2.4c0-0.8-0.1-1.6-0.4-2.4c-0.2-0.6-0.6-1.1-1.1-1.5c-0.5-0.3-1-0.5-1.6-0.5c-0.6,0-1.1,0.2-1.6,0.5
		c-0.5,0.4-0.9,0.9-1.1,1.5c-0.3,0.8-0.4,1.6-0.4,2.4c0,0.8,0.1,1.6,0.4,2.4c0.2,0.6,0.6,1.1,1.1,1.5C94.1,70.9,94.7,71.1,95.3,71.1
		z M101.7,72.1c-0.2,0-0.4-0.1-0.6-0.2c-0.2-0.2-0.2-0.4-0.2-0.6c0-0.2,0.1-0.4,0.2-0.6c0.1-0.2,0.4-0.2,0.6-0.2
		c0.2,0,0.4,0.1,0.6,0.2c0.2,0.1,0.2,0.4,0.2,0.6c0,0.2-0.1,0.4-0.2,0.6C102.1,72,101.9,72.1,101.7,72.1z M106.8,61.5V72h-1.1v-9.5
		h-2.5v-1H106.8z"/>
</g>
</svg>
